<?xml version="1.0" encoding="iso-8859-1"?>
<!-- Generator: Adobe Illustrator 19.0.0, SVG Export Plug-In . SVG Version: 6.00 Build 0)  -->
<svg version="1.1" id="Layer_1" xmlns="http://www.w3.org/2000/svg" xmlns:xlink="http://www.w3.org/1999/xlink" x="0px" y="0px"
	 viewBox="0 0 512 512" style="enable-background:new 0 0 512 512;" xml:space="preserve">
<g>
	<g>
		<g>
			<path d="M503.927,362.99l-20.438-5.115l10.833-18.063c2.521-4.198,1.854-9.573-1.604-13.031l-23.385-23.385V85.333
				c0-23.531-19.135-42.667-42.667-42.667h-64v-32C362.667,4.771,357.896,0,352,0c-5.896,0-10.667,4.771-10.667,10.667v32h-192v-32
				C149.333,4.771,144.563,0,138.667,0C132.771,0,128,4.771,128,10.667v32H42.667C19.135,42.667,0,61.802,0,85.333v341.333
				c0,23.531,19.135,42.667,42.667,42.667h260.729l23.385,23.385c3.448,3.438,8.813,4.115,13.031,1.604l18.063-10.833l5.115,20.438
				c1.188,4.74,5.448,8.073,10.344,8.073H416c4.896,0,9.156-3.333,10.344-8.073l5.115-20.438l18.063,10.833
				c4.198,2.521,9.573,1.854,13.031-1.604l30.167-30.167c3.458-3.458,4.125-8.833,1.604-13.031l-10.833-18.063l20.438-5.115
				c4.74-1.188,8.073-5.448,8.073-10.344v-42.667C512,368.438,508.667,364.177,503.927,362.99z M21.333,85.333
				C21.333,73.573,30.906,64,42.667,64H128v21.333c-11.771,0-21.333,9.573-21.333,21.333c0,11.76,9.563,21.333,21.333,21.333
				s21.333-9.573,21.333-21.333V64h192v21.333c-11.771,0-21.333,9.573-21.333,21.333c0,11.76,9.563,21.333,21.333,21.333
				c11.771,0,21.333-9.573,21.333-21.333V64h64C438.427,64,448,73.573,448,85.333v64H21.333V85.333z M295.923,448H42.667
				c-11.76,0-21.333-9.573-21.333-21.333v-256H448v125.256l-16.542,9.921l-5.115-20.438c-1.188-4.74-5.448-8.073-10.344-8.073
				h-42.667c-4.896,0-9.156,3.333-10.344,8.073l-5.115,20.438l-18.063-10.833c-4.208-2.51-9.583-1.865-13.031,1.604l-30.167,30.167
				c-3.458,3.458-4.125,8.833-1.604,13.031l10.833,18.063l-20.438,5.115c-4.74,1.188-8.073,5.448-8.073,10.344V416
				c0,4.896,3.333,9.156,8.073,10.344l20.438,5.115L295.923,448z M490.667,407.677l-18.323,4.583
				c-3.479,0.865-6.292,3.427-7.479,6.823c-0.948,2.729-1.99,5.396-3.25,7.979c-1.573,3.25-1.406,7.063,0.448,10.156l9.688,16.135
				l-18.396,18.396l-16.135-9.688c-3.094-1.865-6.927-2.042-10.156-0.448c-2.583,1.26-5.25,2.302-7.979,3.25
				c-3.396,1.188-5.958,4-6.823,7.479l-4.583,18.323h-26.021l-4.583-18.323c-0.865-3.479-3.427-6.292-6.823-7.479
				c-2.729-0.948-5.396-1.99-7.979-3.25c-3.24-1.583-7.063-1.417-10.156,0.448l-16.135,9.688l-18.396-18.396l9.688-16.135
				c1.854-3.094,2.021-6.906,0.448-10.156c-1.26-2.583-2.302-5.25-3.25-7.979c-1.188-3.396-4-5.958-7.479-6.823l-18.323-4.583
				v-26.021l18.323-4.583c3.479-0.865,6.292-3.427,7.479-6.823c0.948-2.729,1.99-5.396,3.25-7.979
				c1.573-3.25,1.406-7.063-0.448-10.156l-9.688-16.135l18.396-18.396l16.135,9.688c3.094,1.844,6.896,2.021,10.156,0.448
				c2.583-1.26,5.25-2.302,7.979-3.25c3.396-1.188,5.958-4,6.823-7.479l4.583-18.323h26.021l4.583,18.323
				c0.865,3.479,3.427,6.292,6.823,7.479c2.729,0.948,5.396,1.99,7.979,3.25c3.24,1.583,7.063,1.396,10.156-0.448l16.135-9.688
				l18.396,18.396l-9.688,16.135c-1.854,3.094-2.021,6.906-0.448,10.156c1.26,2.583,2.302,5.25,3.25,7.979
				c1.188,3.396,4,5.958,7.479,6.823l18.323,4.583V407.677z"/>
			<path d="M394.667,341.333c-29.406,0-53.333,23.927-53.333,53.333S365.26,448,394.667,448S448,424.073,448,394.667
				S424.073,341.333,394.667,341.333z M394.667,426.667c-17.646,0-32-14.354-32-32s14.354-32,32-32s32,14.354,32,32
				S412.313,426.667,394.667,426.667z"/>
		</g>
	</g>
</g>
<g>
</g>
<g>
</g>
<g>
</g>
<g>
</g>
<g>
</g>
<g>
</g>
<g>
</g>
<g>
</g>
<g>
</g>
<g>
</g>
<g>
</g>
<g>
</g>
<g>
</g>
<g>
</g>
<g>
</g>
</svg>
